<?xml version="1.0" encoding="iso-8859-1"?>
<!-- Generator: Adobe Illustrator 19.0.0, SVG Export Plug-In . SVG Version: 6.00 Build 0)  -->
<svg version="1.1" id="Layer_1" xmlns="http://www.w3.org/2000/svg" xmlns:xlink="http://www.w3.org/1999/xlink" x="0px" y="0px"
	 viewBox="0 0 512 512" style="enable-background:new 0 0 512 512;" xml:space="preserve">
<g>
	<g>
		<path d="M465.455,74.473c-25.664,0-46.545,20.882-46.545,46.545c0,14.749,7.028,27.76,17.766,36.294L322.498,359.319
			c-8.502-9.101-20.509-14.883-33.916-14.883c-9.159,0-17.651,2.75-24.86,7.339L178.018,240.36
			c5.134-7.482,8.164-16.513,8.164-26.251c0-25.664-20.882-46.545-46.545-46.545c-25.664,0-46.545,20.882-46.545,46.545
			c0,9.664,2.969,18.643,8.032,26.092l-41.951,50.342c-4.042-1.15-8.222-1.961-12.626-1.961C20.882,288.582,0,309.464,0,335.127
			s20.882,46.545,46.545,46.545s46.545-20.882,46.545-46.545c0-14.425-6.736-27.178-17.073-35.723l38.516-46.219
			c7.257,4.678,15.845,7.469,25.102,7.469c9.159,0,17.651-2.75,24.86-7.339L250.2,364.731c-5.134,7.482-8.164,16.512-8.164,26.251
			c0,25.664,20.882,46.545,46.545,46.545c25.664,0,46.545-20.882,46.545-46.545c0-4.514-0.849-8.791-2.052-12.922
			c0.289-0.367,0.611-0.697,0.848-1.115l119.373-211.197c3.9,1.064,7.925,1.815,12.159,1.815c25.664,0,46.545-20.882,46.545-46.545
			S491.118,74.473,465.455,74.473z M46.545,363.055c-15.4,0-27.927-12.527-27.927-27.927S31.145,307.2,46.545,307.2
			s27.927,12.527,27.927,27.927S61.945,363.055,46.545,363.055z M139.636,242.036c-15.4,0-27.927-12.527-27.927-27.927
			c0-15.4,12.527-27.927,27.927-27.927c15.4,0,27.927,12.527,27.927,27.927C167.564,229.509,155.036,242.036,139.636,242.036z
			 M288.582,418.909c-15.4,0-27.927-12.527-27.927-27.927s12.527-27.927,27.927-27.927c15.4,0,27.927,12.527,27.927,27.927
			S303.982,418.909,288.582,418.909z M465.455,148.945c-15.4,0-27.927-12.527-27.927-27.927s12.527-27.927,27.927-27.927
			s27.927,12.527,27.927,27.927S480.855,148.945,465.455,148.945z"/>
	</g>
</g>
<g>
</g>
<g>
</g>
<g>
</g>
<g>
</g>
<g>
</g>
<g>
</g>
<g>
</g>
<g>
</g>
<g>
</g>
<g>
</g>
<g>
</g>
<g>
</g>
<g>
</g>
<g>
</g>
<g>
</g>
</svg>
