<svg version="1.1" id="Layer_1" xmlns="http://www.w3.org/2000/svg" xmlns:xlink="http://www.w3.org/1999/xlink" x="0px" y="0px"
	 viewBox="0 0 206.519 206.519" style="enable-background:new 0 0 206.519 206.519;" xml:space="preserve">
<g>
	<g>
		<g>
			<path d="M202.621,105.207H101.31V3.897C101.31,1.745,99.567,0,97.414,0H3.897C1.743,0,0,1.745,0,3.897V136.38
				c0,2.152,1.743,3.897,3.897,3.897h62.345v62.345c0,2.152,1.743,3.897,3.897,3.897h132.483c2.154,0,3.897-1.745,3.897-3.897
				v-93.517C206.517,106.952,204.774,105.207,202.621,105.207z M70.138,105.207c-2.154,0-3.897,1.745-3.897,3.897v23.379H7.793
				V7.793h85.724v97.414H70.138z M74.034,198.724v-62.345V113h23.379h101.31v85.724H74.034z"/>
			<path d="M136.379,31.172c0,2.152,1.743,3.897,3.897,3.897c19.338,0,35.069,15.733,35.069,35.069c0,2.152,1.743,3.897,3.897,3.897
				s3.897-1.745,3.897-3.897c0-23.634-19.228-42.862-42.862-42.862C138.122,27.276,136.379,29.021,136.379,31.172z"/>
			<path d="M137.521,50.459c0.761,0.761,1.758,1.142,2.755,1.142s1.994-0.381,2.755-1.142c1.522-1.522,1.522-3.988,0-5.51
				l-13.775-13.777l13.775-13.777c1.522-1.522,1.522-3.988,0-5.51c-1.522-1.522-3.988-1.522-5.51,0l-16.53,16.532
				c-1.522,1.522-1.522,3.988,0,5.51L137.521,50.459z"/>
			<path d="M165.466,67.385c-1.522-1.522-3.988-1.522-5.51,0c-1.522,1.522-1.522,3.988,0,5.51l16.53,16.532
				c0.731,0.731,1.72,1.142,2.755,1.142c1.035,0,2.024-0.411,2.755-1.142l16.53-16.532c1.522-1.522,1.522-3.988,0-5.51
				c-1.522-1.522-3.988-1.522-5.51,0l-13.774,13.777L165.466,67.385z"/>
		</g>
	</g>
</g>
</svg>
