<svg id="Capa_1" enable-background="new 0 0 512 512" height="512" viewBox="0 0 512 512" width="512" xmlns="http://www.w3.org/2000/svg"><g><g><path d="m101.664 416.507 22.123 22.123h-63.787v-46.63h-30v76.63h93.787l-22.123 22.123 21.213 21.213 58.336-58.336-58.336-58.336z"/><path d="m413.213 150h-112.213v-51.213l-98.787-98.787h-202.213v362h211v150h301v-263.213zm8.787 51.213 38.787 38.787h-38.787zm-211-150 38.787 38.787h-38.787zm-181-21.213h151v90h90v212h-241zm211 452v-120h60v-182h91v90h90v212z"/><path d="m435.394 361.147-26.517 26.517-26.517-26.517-21.213 21.213 26.517 26.517-26.517 26.517 21.213 21.212 26.517-26.516 26.517 26.516 21.212-21.212-26.516-26.517 26.516-26.517z"/></g></g></svg>